<svg viewBox="0 0 66 53" xmlns="http://www.w3.org/2000/svg">
  <g fill-rule="nonzero" fill="none">
    <path d="M61.807 12.338c-1.587-1.311-3.852-1.76-6.796-1.345-2.668.482-5.854 1.356-9.556 2.621l-3.002 1.38h-.035c-.736.437-2.852 2.14-6.347 5.107v-.07l-1.829 1.415v-.104h-.034l.034-.034.069-.38c.069-.092.138-.172.207-.241l.483-1.208v-.172c.023-.138-.127-.38-.448-.724v-.07l.724-2.622v.07c.483-1.404 1.161-2.899 2.035-4.486l.035-.103c.828-1.863 1.955-3.738 3.381-5.624v-.034l1.276-1.863.898-2.105v-.138c.091-.368.023-.552-.208-.552-.138-.138-.299-.092-.483.138-.137.115-.344.368-.62.76-.507.712-1.3 1.966-2.381 3.76-2.254 3.772-3.76 6.52-4.52 8.245v.035l-.931 2.484-.069-.31v-.208c0-.115-.023-.195-.069-.241-.092-.115-.161-.173-.207-.173a.328.328 0 00-.276.138c-.069.023-.127.092-.172.207-.023-.115-.07-.184-.139-.207a.328.328 0 00-.275-.138c-.046 0-.115.058-.207.173-.046.046-.07.126-.07.241v.207l-.103.311-.897-2.484v-.035c-.759-1.725-2.265-4.473-4.52-8.245-1.08-1.794-1.874-3.048-2.38-3.76-.276-.392-.483-.645-.621-.76-.184-.23-.345-.276-.483-.138-.23 0-.299.184-.207.552v.138l.897 2.105 1.277 1.863v.034c1.426 1.886 2.541 3.761 3.346 5.624l.069.103c.874 1.587 1.553 3.082 2.036 4.485v-.069l.724 2.622v.07c-.322.344-.471.586-.448.724v.172l.483 1.208c.069.069.138.15.207.241l.069.38.034.034h-.034v.104l-1.829-1.415v.07c-3.496-2.968-5.612-4.67-6.348-5.107h-.034l-3.002-1.38c-3.703-1.265-6.888-2.139-9.556-2.622-2.944-.414-5.21.035-6.797 1.346-1.817 1.449-2.875 3.151-3.174 5.106-.276 1.771.173 3.979 1.346 6.624l.034.034c1.357 2.76 3.588 4.991 6.693 6.693.207.092.403.196.587.311h.069c1.518.851 2.656 1.357 3.415 1.518h.104l1.759-.345-.172.966v.172l.276 1.829v.034c1.288 3.036 3.346 5.486 6.175 7.349l.035.034c2.116 1.15 3.99 1.472 5.623.966h-.069c1.518-.322 2.772-1.368 3.76-3.139l-.103.069c.276-.46.759-1.978 1.449-4.554v.034l.207-.448-.517 12.213.103 2.173.138.794c.046.115.104.184.173.207.115.023.207.034.276.034.115-.023.184-.08.207-.172.069-.115.069-.219 0-.31l-.104-.863.035.138-.138-2.001.62-14.352.656 14.352-.138 2.001.035-.138-.104.862c-.069.092-.069.196 0 .311.023.092.092.15.207.172.069 0 .161-.011.276-.034.069-.023.127-.092.173-.207l.138-.794.103-2.173-.552-12.213.242.448v-.034c.69 2.576 1.173 4.094 1.449 4.554l-.104-.069c.989 1.771 2.243 2.817 3.76 3.14h-.068c1.633.505 3.507.183 5.623-.967l.035-.034c2.806-1.863 4.864-4.313 6.175-7.349v-.034l.276-1.829v-.172l-.172-.966 1.759.345h.104c.828-.23 2.185-.84 4.07-1.829 3.106-1.702 5.337-3.933 6.694-6.693l.034-.034c1.173-2.645 1.622-4.853 1.346-6.624-.3-1.955-1.357-3.657-3.174-5.106M42.246 1.367v.034l-.034.035.034-.069m-18.492.069l-.034-.035v-.034l.034.069z" fill="#F77E5E"/>
  </g>
</svg>
